<svg xmlns="http://www.w3.org/2000/svg" version="1.1" xmlns:xlink="http://www.w3.org/1999/xlink" width="512" height="512" x="0" y="0" viewBox="0 0 500 500" style="enable-background:new 0 0 512 512" xml:space="preserve" class=""><g><path fill="#ffffff" d="m318.967 205.729-90.155-90.147c-1.096-1.096-1.326-2.396-1.326-3.293s.23-2.197 1.326-3.293l20.76-20.761c1.754-1.755 4.831-1.756 6.586-.001l39.454 39.454c10.739 10.739 28.151 10.739 38.891 0 10.739-10.739 10.74-28.151 0-38.891l-39.454-39.454c-23.26-23.26-61.107-23.26-84.368 0l-20.76 20.761c-11.243 11.243-17.435 26.224-17.435 42.185 0 15.959 6.191 30.94 17.435 42.185l16.681 16.679-31.724 31.723c-11.243 11.243-17.435 26.225-17.435 42.185s6.192 30.941 17.435 42.185l97.183 97.176c1.095 1.095 1.325 2.393 1.325 3.292 0 .896-.23 2.196-1.326 3.292l-20.76 20.762c-1.754 1.755-4.831 1.755-6.585 0l-39.454-39.454c-10.739-10.739-28.151-10.739-38.891 0-10.739 10.739-10.74 28.151 0 38.891l39.454 39.454c11.63 11.63 26.907 17.445 42.184 17.445s30.554-5.815 42.184-17.445l20.76-20.761c11.243-11.243 17.435-26.224 17.435-42.184 0-15.961-6.192-30.941-17.435-42.185l-23.708-23.706 31.726-31.725c23.257-23.263 23.256-61.11-.003-84.369zm-105.199 42.623c-1.095-1.095-1.325-2.395-1.325-3.292s.23-2.197 1.325-3.293l31.726-31.726 34.582 34.579c1.754 1.754 1.753 4.832 0 6.586l-31.726 31.726z" opacity="1" data-original="#333333" class=""></path></g></svg>